#N canvas 8 449 1268 509 12;
#X obj 265 97 netreceive -u -b 9001;
#X obj 265 146 oscparse;
#X obj 265 191 list trim;
#X obj 265 240 route move game_over;
#X obj 265 277 list split 9;
#X obj 265 377 unpack f s s s s s s f f;
#X obj 305 313 list;
#X obj 265 462 print A;
#X obj 334 466 print B;
#X obj 334 428 list fromsymbol;
#X obj 305 347 print neighbours;
#X text 642 66 /move ARG0 fullmove_number (int) ARG1 uci (string) ARG2 san (string) ARG3 fen (string) ARG4 from_alg (string) ARG5 to_alg (string) ARG6 captured_name (string) ARG7 white_count (int) ARG8 black_count (int) [ARG9 neighbour_0 (string)] [ARG10 neighbour_1 (string)] [ ... more neighbours ... ] [ARGn osc_label (string)] <-- optional;
#X text 646 4 matd.space;
#X text 644 33 mathewdalgleish@gmail.com;
#X connect 0 0 1 0;
#X connect 1 0 2 0;
#X connect 2 0 3 0;
#X connect 3 0 4 0;
#X connect 4 0 5 0;
#X connect 4 1 6 0;
#X connect 5 0 7 0;
#X connect 5 1 9 0;
#X connect 6 0 10 0;
#X connect 9 0 8 0;
